<svg xmlns="http://www.w3.org/2000/svg" width="1600" height="620" viewBox="0 0 1600 620" role="img" aria-labelledby="title desc">
<title id="title">simplicio-loop verified delivery lifecycle</title><desc id="desc">Eight explicit stages from intake through durable memory, with safety controls below.</desc>
<defs><linearGradient id="bg" x2="1" y2="1"><stop stop-color="#06111f"/><stop offset="1" stop-color="#0b2235"/></linearGradient><linearGradient id="line"><stop stop-color="#22d3ee"/><stop offset="1" stop-color="#14b8a6"/></linearGradient><filter id="glow"><feGaussianBlur stdDeviation="5" result="b"/><feMerge><feMergeNode in="b"/><feMergeNode in="SourceGraphic"/></feMerge></filter></defs>
<rect width="1600" height="620" rx="34" fill="url(#bg)"/><path d="M95 270H1505" stroke="url(#line)" stroke-width="10" opacity=".65" filter="url(#glow)"/>
<g font-family="Inter,Segoe UI,sans-serif" text-anchor="middle" fill="#e6f7ff">
<text x="800" y="64" font-size="32" font-weight="700">ONE GOAL → A VERIFIED DELIVERY SYSTEM</text>
<text x="800" y="102" font-size="18" fill="#8ed7e8">Every transition is bounded, observable, evidenced, and reversible</text>
<g font-weight="700" font-size="19">
<g transform="translate(45 160)"><rect width="170" height="220" rx="24" fill="#0c2838" stroke="#22d3ee" stroke-width="2"/><circle cx="85" cy="64" r="34" fill="#123d52"/><text x="85" y="72" font-size="30">01</text><text x="85" y="128">INTAKE</text><text x="85" y="160" font-size="14" font-weight="400" fill="#9bcbd8">goal · source · risks</text></g>
<g transform="translate(235 160)"><rect width="170" height="220" rx="24" fill="#0c2838" stroke="#22d3ee" stroke-width="2"/><circle cx="85" cy="64" r="34" fill="#123d52"/><text x="85" y="72" font-size="30">02</text><text x="85" y="128">CONTRACT</text><text x="85" y="160" font-size="14" font-weight="400" fill="#9bcbd8">ACs · DAG · oracle</text></g>
<g transform="translate(425 160)"><rect width="170" height="220" rx="24" fill="#0c2838" stroke="#22d3ee" stroke-width="2"/><circle cx="85" cy="64" r="34" fill="#123d52"/><text x="85" y="72" font-size="30">03</text><text x="85" y="128">MAP</text><text x="85" y="160" font-size="14" font-weight="400" fill="#9bcbd8">repo · impact · flow</text></g>
<g transform="translate(615 160)"><rect width="170" height="220" rx="24" fill="#0c2838" stroke="#22d3ee" stroke-width="2"/><circle cx="85" cy="64" r="34" fill="#123d52"/><text x="85" y="72" font-size="30">04</text><text x="85" y="128">PLAN</text><text x="85" y="160" font-size="14" font-weight="400" fill="#9bcbd8">phase · routes · lanes</text></g>
<g transform="translate(805 160)"><rect width="170" height="220" rx="24" fill="#0c2838" stroke="#14b8a6" stroke-width="2"/><circle cx="85" cy="64" r="34" fill="#12443f"/><text x="85" y="72" font-size="30">05</text><text x="85" y="128">EXECUTE</text><text x="85" y="160" font-size="14" font-weight="400" fill="#9bd8cc">isolated worktrees</text></g>
<g transform="translate(995 160)"><rect width="170" height="220" rx="24" fill="#0c2838" stroke="#14b8a6" stroke-width="2"/><circle cx="85" cy="64" r="34" fill="#12443f"/><text x="85" y="72" font-size="30">06</text><text x="85" y="128">VERIFY</text><text x="85" y="160" font-size="14" font-weight="400" fill="#9bd8cc">tests · watcher · proof</text></g>
<g transform="translate(1185 160)"><rect width="170" height="220" rx="24" fill="#0c2838" stroke="#f5b942" stroke-width="2"/><circle cx="85" cy="64" r="34" fill="#4b3718"/><text x="85" y="72" font-size="30">07</text><text x="85" y="128">DELIVER</text><text x="85" y="160" font-size="14" font-weight="400" fill="#f7d99a">merge · re-query</text></g>
<g transform="translate(1375 160)"><rect width="170" height="220" rx="24" fill="#0c2838" stroke="#f5b942" stroke-width="2"/><circle cx="85" cy="64" r="34" fill="#4b3718"/><text x="85" y="72" font-size="30">08</text><text x="85" y="128">REMEMBER</text><text x="85" y="160" font-size="14" font-weight="400" fill="#f7d99a">journal · wiki · HBP</text></g>
</g><rect x="155" y="455" width="1290" height="105" rx="28" fill="#111f2d" stroke="#f5b942" stroke-width="2"/><text x="800" y="497" font-size="21" font-weight="700" fill="#f7d99a">SAFETY AND RECOVERY PLANE</text><text x="800" y="535" font-size="17" fill="#c8d8df">human gate · secret scan · checkpoints · rollback · STOP path · bounded iterations · operational ledger</text></g></svg>
